<svg height="512" viewBox="0 0 58 58" width="512" xmlns="http://www.w3.org/2000/svg"><g id="Page-1" fill="none" fill-rule="evenodd"><g id="001---Calendar" fill-rule="nonzero"><path id="Shape" d="m58 14v40c0 2.209139-1.790861 4-4 4h-50c-2.209139 0-4-1.790861-4-4v-40z" fill="#ecf0f1"/><path id="Shape" d="m58 7v9h-58v-9c0-2.209139 1.790861-4 4-4h50c2.209139 0 4 1.790861 4 4z" fill="#e64c3c"/><g fill="#95a5a5"><rect id="Rectangle-path" height="5" rx="1" width="6" x="6" y="21"/><rect id="Rectangle-path" height="5" rx="1" width="6" x="16" y="21"/><rect id="Rectangle-path" height="5" rx="1" width="6" x="26" y="21"/><rect id="Rectangle-path" height="5" rx="1" width="6" x="36" y="21"/><rect id="Rectangle-path" height="5" rx="1" width="6" x="46" y="21"/><rect id="Rectangle-path" height="5" rx="1" width="6" x="6" y="30"/><rect id="Rectangle-path" height="5" rx="1" width="6" x="16" y="30"/><rect id="Rectangle-path" height="5" rx="1" width="6" x="26" y="30"/><rect id="Rectangle-path" height="5" rx="1" width="6" x="36" y="30"/><rect id="Rectangle-path" height="5" rx="1" width="6" x="46" y="30"/><rect id="Rectangle-path" height="5" rx="1" width="6" x="6" y="39"/><rect id="Rectangle-path" height="5" rx="1" width="6" x="16" y="39"/><rect id="Rectangle-path" height="5" rx="1" width="6" x="26" y="39"/><rect id="Rectangle-path" height="5" rx="1" width="6" x="36" y="39"/><rect id="Rectangle-path" height="5" rx="1" width="6" x="46" y="39"/><rect id="Rectangle-path" height="5" rx="1" width="6" x="6" y="48"/><rect id="Rectangle-path" height="5" rx="1" width="6" x="16" y="48"/><rect id="Rectangle-path" height="5" rx="1" width="6" x="26" y="48"/><rect id="Rectangle-path" height="5" rx="1" width="6" x="36" y="48"/><rect id="Rectangle-path" height="5" rx="1" width="6" x="46" y="48"/></g><path id="Shape" d="m47 3c1.7799916.69615377 2.9644585 2.39704811 3 4.308-.1669773 2.63882398-2.3558984 4.6936142-5 4.6936142s-4.8330227-2.05479022-5-4.6936142c.0355415-1.91095189 1.2200084-3.61184623 3-4.308z" fill="#c03a2b"/><path id="Shape" d="m15 3c1.7799916.69615377 2.9644585 2.39704811 3 4.308-.0886126 2.67476119-2.3250095 4.773396-5 4.692-2.6749905.081396-4.91138737-2.01723881-5-4.692.03554154-1.91095189 1.22000835-3.61184623 3-4.308z" fill="#c03a2b"/><rect id="Rectangle-path" fill="#95a5a5" height="8" rx="2" width="4" x="43"/><rect id="Rectangle-path" fill="#95a5a5" height="8" rx="2" width="4" x="11"/></g></g></svg>