<svg width="16" height="16" viewBox="0 0 16 16" fill="none" xmlns="http://www.w3.org/2000/svg">
<path d="M2.40444 6.4168C2.40444 4.89522 2.40444 3.37365 2.40444 1.85208C2.40444 1.80362 2.40929 1.75435 2.40444 1.7067C2.39393 1.61867 2.43273 1.6001 2.51518 1.6001C3.31054 1.60252 4.1059 1.60171 4.90125 1.60171C6.81529 1.60171 8.72932 1.60171 10.6433 1.60171C10.7711 1.60171 10.7711 1.60171 10.7711 1.7277C10.7711 2.19613 10.7678 2.66455 10.7735 3.13298C10.7743 3.23474 10.742 3.25574 10.6466 3.25493C9.43415 3.2517 8.22171 3.25978 7.00927 3.25089C6.2123 3.24524 5.52606 3.51256 4.92631 4.0246C4.21906 4.6279 3.81572 5.40403 3.63304 6.30373C3.54656 6.72773 3.50291 7.15739 3.51665 7.59109C3.5506 8.63212 3.90301 9.53747 4.6814 10.2538C4.73879 10.3063 4.76465 10.3596 4.76223 10.4372C4.75657 10.673 4.75414 10.9088 4.75818 11.1447C4.7598 11.2246 4.72909 11.2432 4.65634 11.2424C3.93858 11.2408 3.22082 11.2391 2.50305 11.2432C2.39717 11.244 2.4004 11.1891 2.4004 11.1156C2.40121 9.54878 2.40121 7.98198 2.40121 6.41518C2.40202 6.4168 2.40283 6.4168 2.40444 6.4168Z" fill="#212121"/>
<path d="M10.8803 7.0249C10.9336 7.14685 10.9781 7.24862 11.0225 7.35118C11.8559 9.28546 12.6892 11.2197 13.5194 13.1548C13.5509 13.2291 13.567 13.3155 13.5687 13.3971C13.5743 13.6943 13.5687 13.9915 13.5727 14.2887C13.5735 14.3703 13.5541 14.4002 13.4652 14.4002C10.7493 14.3977 8.03349 14.3977 5.31763 14.3994C5.24973 14.3994 5.21094 14.3929 5.21094 14.3081C5.21336 13.1548 5.21255 12.0015 5.21255 10.8482C5.21255 10.8353 5.21579 10.8232 5.21821 10.8006C5.23842 10.8119 5.2562 10.8175 5.26752 10.8296C5.5682 11.1317 5.93759 11.2528 6.35547 11.2528C6.72648 11.252 7.09749 11.2528 7.46849 11.2528C7.47415 11.2641 7.479 11.2755 7.48466 11.2876C7.17912 11.9272 6.8744 12.5677 6.55755 13.2315C6.61979 13.2315 6.65697 13.2315 6.69334 13.2315C7.14598 13.2315 7.59863 13.2291 8.05127 13.234C8.13937 13.2348 8.18302 13.2073 8.21939 13.1282C8.50229 12.52 8.79085 11.9143 9.07376 11.3061C9.10609 11.2375 9.14327 11.2133 9.22006 11.2141C10.0186 11.2173 10.8172 11.2157 11.6158 11.2157C11.6571 11.2157 11.6991 11.2157 11.7581 11.2157C11.7427 11.1697 11.7346 11.1373 11.7217 11.1075C11.5746 10.7666 11.4243 10.4274 11.2812 10.0858C11.2489 10.0091 11.2085 9.98002 11.1236 9.98082C10.6451 9.98486 10.1666 9.98244 9.68806 9.98244C9.6533 9.98244 9.61935 9.98244 9.56681 9.98244C10.0073 8.99148 10.439 8.01829 10.8803 7.0249Z" fill="#212121"/>
<path d="M13.5898 9.50216C13.4152 9.12177 13.2414 8.74138 13.0668 8.36098C12.5891 7.31672 12.1106 6.27326 11.6337 5.22819C11.6014 5.15793 11.5626 5.12966 11.4818 5.13047C11.0679 5.13532 10.6541 5.13451 10.2402 5.13128C10.1683 5.13047 10.1319 5.15389 10.102 5.21931C9.42143 6.71342 8.73762 8.20592 8.05865 9.70084C8.015 9.79695 7.96731 9.83894 7.85819 9.83168C7.58823 9.81391 7.3126 9.83329 7.04748 9.79129C6.49946 9.70488 6.084 9.38586 5.74775 8.96186C5.34765 8.45709 5.19326 7.87237 5.21024 7.23434C5.22721 6.60681 5.37513 6.02209 5.76068 5.51409C6.11633 5.04486 6.58191 4.75654 7.17277 4.68466C7.22692 4.6782 7.28269 4.68062 7.33766 4.68062C9.38425 4.68062 11.4308 4.68062 13.4774 4.68062C13.6051 4.68062 13.6051 4.68062 13.6051 4.8058C13.6051 6.34676 13.6051 7.88771 13.6051 9.42867C13.6051 9.45128 13.6051 9.4739 13.6051 9.49651C13.5995 9.49893 13.5946 9.50055 13.5898 9.50216Z" fill="#212121"/>
</svg>
