<svg width="16" height="14" viewBox="0 0 16 14" fill="none" xmlns="http://www.w3.org/2000/svg">
<g clip-path="url(#clip0)">
<path d="M15.1774 4.99633C14.7249 4.43222 14.108 4.02929 13.4087 3.82783C13.3265 1.73259 11.5578 0.0402832 9.37788 0.0402832C8.473 0.0402832 7.56811 0.362628 6.82775 0.92673C6.21079 1.41025 5.75835 2.05494 5.51156 2.78021C5.18251 2.65933 4.85346 2.57874 4.48328 2.57874C3.00256 2.57874 1.76863 3.78754 1.76863 5.23809C0.740351 5.68131 0.0411224 6.72893 0.0411224 7.85713C0.0411224 9.42856 1.35732 10.7179 2.96143 10.7179H12.3805C14.3547 10.7179 15.9589 9.14651 15.9589 7.21244C15.9589 6.40658 15.6709 5.64102 15.1774 4.99633ZM12.3805 10.1941H2.96143C1.64524 10.1941 0.616958 9.14651 0.616958 7.89743C0.616958 6.93039 1.23392 6.04395 2.13881 5.7216C2.2622 5.68131 2.34446 5.56043 2.30333 5.43955C2.30333 5.39926 2.30333 5.31867 2.30333 5.27838C2.30333 4.10988 3.29048 3.14285 4.48328 3.14285C4.85346 3.14285 5.22364 3.22343 5.55269 3.4249C5.63495 3.46519 5.71721 3.46519 5.79948 3.4249C5.88174 3.38461 5.92287 3.30402 5.964 3.22343C6.12853 2.49816 6.58097 1.81318 7.1568 1.32966C7.77377 0.846144 8.55526 0.564093 9.33675 0.564093C11.2699 0.564093 12.7918 2.09523 12.7918 3.94871V3.989C12.7918 4.10988 12.874 4.23076 12.9974 4.27105C13.6555 4.43222 14.2725 4.79486 14.6838 5.27838C15.1362 5.80219 15.3419 6.44688 15.3419 7.13186C15.4242 8.86446 14.0668 10.1941 12.3805 10.1941Z" fill="black" stroke="black" stroke-width="0.25" stroke-miterlimit="10"/>
</g>
<rect x="3" y="5" width="8" height="9" fill="white"/>
<path d="M9.37532 8.73993H9.15681V7.93407C9.15681 6.84615 8.19537 6 7.05913 6C5.92288 6 4.91774 6.88645 4.91774 7.93407V8.73993H4.69923C4.30591 8.73993 4 9.02198 4 9.38462V11.9634C4 12.326 4.30591 12.6081 4.69923 12.6081H9.37532C9.76864 12.6081 10.0746 12.326 10.0746 11.9634V9.38462C10.0746 9.02198 9.76864 8.73993 9.37532 8.73993ZM7.27764 10.8352V11.5201C7.27764 11.641 7.19023 11.7216 7.05913 11.7216C6.92802 11.7216 6.84062 11.641 6.84062 11.5201V10.8352C6.57841 10.7546 6.3599 10.5128 6.3599 10.2308C6.3599 9.86813 6.66581 9.58608 7.05913 9.58608C7.45244 9.58608 7.75836 9.86813 7.75836 10.2308C7.71465 10.5128 7.53985 10.7546 7.27764 10.8352ZM8.19537 8.73993H5.83548V7.93407C5.83548 7.32967 6.3599 6.84615 7.01542 6.84615C7.67095 6.84615 8.19537 7.32967 8.19537 7.93407V8.73993Z" fill="black"/>
<defs>
<clipPath id="clip0">
<rect width="16" height="11" fill="white"/>
</clipPath>
</defs>
</svg>
