<svg width="16" height="16" viewBox="0 0 16 16" fill="none" xmlns="http://www.w3.org/2000/svg">
<g clip-path="url(#clip0)">
<path d="M7 12C6.72386 12 6.5 12.2239 6.5 12.5C6.5 12.7761 6.72386 13 7 13H9C9.27614 13 9.5 12.7761 9.5 12.5C9.5 12.2239 9.27614 12 9 12H7ZM5 0C3.89543 0 3 0.895431 3 2V14C3 15.1046 3.89543 16 5 16H11C12.1046 16 13 15.1046 13 14V2C13 0.89543 12.1046 0 11 0H5ZM4 2C4 1.44772 4.44772 1 5 1H11C11.5523 1 12 1.44772 12 2V14C12 14.5523 11.5523 15 11 15H5C4.44772 15 4 14.5523 4 14V2Z" fill="#212121"/>
<rect x="-1" y="3" width="10" height="8" fill="white"/>
<g clip-path="url(#clip1)">
<path d="M6.28437 9.95156L7.95156 8.28437C7.98281 8.25312 8 8.21094 8 8.16719L8 4.66719C8 4.29844 7.70156 4 7.33281 4L0.665626 4C0.298438 4 4.63792e-07 4.29844 4.47673e-07 4.66719L2.43664e-07 9.33437C2.27614e-07 9.70156 0.298438 10.0016 0.667188 10.0016L6.16719 10.0016C6.21094 10 6.25312 9.98281 6.28437 9.95156ZM4.83281 6.5C4.925 6.5 5 6.575 5 6.66719L5 7.33437C5 7.42656 4.925 7.50156 4.83281 7.50156L4.16563 7.50156C4.07344 7.50156 3.99844 7.42656 3.99844 7.33437L3.99844 6.66719C3.99844 6.575 4.07344 6.5 4.16563 6.5L4.83281 6.5ZM4.5 5C4.775 5 5 5.225 5 5.5L5 6C5 6.09219 4.925 6.16719 4.83281 6.16719L4.16563 6.16719C4.07344 6.16719 3.99844 6.09219 3.99844 6L3.99844 5.16719C3.99844 5.075 4.07344 5 4.16563 5C4.16719 5 4.5 5 4.5 5ZM1.16719 6C1.075 6 1 5.925 1 5.83281L1 5.5C1 5.225 1.225 5 1.5 5L1.83281 5C1.925 5 2 5.075 2 5.16719L2 5.83437C2 5.92656 1.925 6.00156 1.83281 6.00156L1.16719 6ZM1.16719 7.33281C1.075 7.33281 1 7.25781 1 7.16562L1 6.5C1 6.40781 1.075 6.33281 1.16719 6.33281L1.83438 6.33281C1.92656 6.33281 2.00156 6.40781 2.00156 6.5L2.00156 7.16719C2.00156 7.25937 1.92656 7.33437 1.83438 7.33437L1.16719 7.33281ZM1.5 9C1.225 9 1 8.775 1 8.5L1 7.83281C1 7.74062 1.075 7.66562 1.16719 7.66562L2.16719 7.66562C2.25938 7.66562 2.33438 7.59062 2.33438 7.49844L2.33438 5.16719C2.33438 5.075 2.40938 5 2.50156 5L3.50156 5C3.59375 5 3.66875 5.075 3.66875 5.16719L3.66875 8.83437C3.66875 8.92656 3.59375 9.00156 3.50156 9.00156L1.5 9ZM4.16719 9C4.075 9 4 8.925 4 8.83281L4 8C4 7.90781 4.075 7.83281 4.16719 7.83281L4.83437 7.83281C4.92656 7.83281 5.00156 7.90781 5.00156 8L5.00156 8.5C5.00156 8.775 4.77656 9 4.50156 9L4.16719 9Z" fill="black"/>
</g>
</g>
<defs>
<clipPath id="clip0">
<rect width="16" height="16" fill="white"/>
</clipPath>
<clipPath id="clip1">
<rect width="6" height="8" fill="white" transform="translate(8 4) rotate(90)"/>
</clipPath>
</defs>
</svg>
