<svg width="49" height="48" viewBox="0 0 49 48" fill="none" xmlns="http://www.w3.org/2000/svg">
<path d="M38.9531 42H10.9531C8.74412 42 6.95312 40.209 6.95312 38V10C6.95312 7.791 8.74412 6 10.9531 6H38.9531C41.1621 6 42.9531 7.791 42.9531 10V38C42.9531 40.209 41.1621 42 38.9531 42Z" fill="#B30B00"/>
<path d="M36.1959 26.799C34.5039 25.042 29.8819 25.758 28.7759 25.888C27.1489 24.326 26.0419 22.438 25.6519 21.787C26.2379 20.03 26.6279 18.272 26.6929 16.385C26.6929 14.758 26.0419 13 24.2199 13C23.5689 13 22.9829 13.391 22.6579 13.911C21.8769 15.278 22.2019 18.012 23.4389 20.81C22.7229 22.828 22.0719 24.78 20.2499 28.23C18.3619 29.011 14.3919 30.834 14.0669 32.786C13.9369 33.372 14.1319 33.958 14.5879 34.413C15.0429 34.805 15.6279 35 16.2139 35C18.6219 35 20.9649 31.68 22.5929 28.882C23.9599 28.426 26.1079 27.775 28.2559 27.385C30.7939 29.598 33.0069 29.923 34.1789 29.923C35.7409 29.923 36.3269 29.272 36.5219 28.686C36.8469 28.036 36.6519 27.32 36.1959 26.799ZM34.5689 27.905C34.5039 28.361 33.9179 28.816 32.8769 28.556C31.6399 28.231 30.5339 27.645 29.5569 26.864C30.4029 26.734 32.2909 26.539 33.6579 26.799C34.1789 26.929 34.6989 27.254 34.5689 27.905ZM23.6989 14.497C23.8289 14.302 24.0239 14.172 24.2199 14.172C24.8059 14.172 24.9359 14.888 24.9359 15.474C24.8709 16.841 24.6109 18.208 24.1549 19.51C23.1789 16.905 23.3739 15.083 23.6989 14.497ZM23.5689 27.124C24.0899 26.083 24.8059 24.26 25.0659 23.479C25.6519 24.455 26.6279 25.627 27.1489 26.148C27.1489 26.213 25.1309 26.604 23.5689 27.124ZM19.7289 29.728C18.2319 32.201 16.6699 33.764 15.8239 33.764C15.6939 33.764 15.5639 33.699 15.4329 33.634C15.2379 33.504 15.1729 33.309 15.2379 33.048C15.4329 32.136 17.1249 30.899 19.7289 29.728Z" fill="white"/>
</svg>
