<svg width="16" height="16" viewBox="0 0 16 16" fill="none" xmlns="http://www.w3.org/2000/svg">
<path d="M7.50938 15.7187C7.47186 15.7187 7.4531 15.7187 7.41559 15.6999C3.56999 13.918 1.28139 10.8417 1.28139 7.46543V2.81361C1.28139 2.75734 1.30015 2.70107 1.35642 2.6448C1.39394 2.60728 1.46898 2.58852 1.52525 2.58852C3.94517 2.81361 5.85859 2.08208 7.34055 0.356401C7.37807 0.300129 7.4531 0.281372 7.50938 0.281372C7.56566 0.281372 7.64069 0.318887 7.67821 0.356401C9.12266 2.06332 11.0361 2.79485 13.4935 2.58852C13.6061 2.56977 13.7186 2.66355 13.7374 2.79485V2.81361V7.46543C13.7374 7.69052 13.7186 7.9156 13.6999 8.12194C13.6436 8.6659 13.5498 9.1911 13.381 9.71631C13.3059 9.9414 13.2309 10.1665 13.1371 10.3916C12.8932 10.9543 12.6118 11.4795 12.2554 11.9672C12.2179 12.0422 12.1616 12.0985 12.1053 12.1735C10.9235 13.6929 9.38528 14.9121 7.62194 15.6999C7.56566 15.7187 7.52814 15.7187 7.50938 15.7187ZM1.7316 3.05746V7.46543C1.7316 10.6354 3.88889 13.5428 7.50938 15.2685C9.16017 14.5182 10.6234 13.374 11.7302 11.9297C11.7864 11.8546 11.824 11.7984 11.8615 11.7421C12.1991 11.2732 12.4805 10.7667 12.7056 10.2415C12.7994 10.0352 12.8745 9.82885 12.9495 9.60376C13.0996 9.11607 13.2121 8.60963 13.2496 8.10318C13.2684 7.89685 13.2872 7.69052 13.2872 7.48419V3.0387C10.886 3.18876 8.99134 2.47598 7.50938 0.844092C5.9899 2.49474 4.09524 3.22627 1.7316 3.05746Z" fill="black" stroke="black" stroke-width="0.5" stroke-miterlimit="10"/>
<path d="M5.65552 9.7606C5.59905 10.7156 6.33906 11.5485 7.2941 11.605C8.24914 11.6614 9.08215 10.9215 9.13862 9.96656C9.18733 9.14267 8.64779 8.41554 7.88997 8.20161L8.05827 5.35547C8.07045 5.1495 7.91188 4.97101 7.70589 4.95883C7.4999 4.94665 7.3214 5.10521 7.30922 5.31118L7.30147 5.44225L6.79586 5.41235C6.64605 5.4035 6.52705 5.5092 6.51929 5.64027C6.51154 5.77134 6.61726 5.89034 6.76707 5.89919L6.7858 5.9003C6.84197 5.90362 6.87721 5.94329 6.87389 5.99946L6.86503 6.14926C6.86171 6.20543 6.82204 6.24067 6.76587 6.23735L6.74714 6.23624C6.59733 6.22738 6.47833 6.33308 6.47058 6.46416C6.46283 6.59523 6.56854 6.71422 6.71835 6.72308L7.22396 6.75298L7.14092 8.15732C6.32572 8.27823 5.70424 8.93671 5.65552 9.7606ZM7.45465 8.8899C7.99771 8.92201 8.40295 9.37814 8.37084 9.92116C8.33873 10.4642 7.88256 10.8694 7.33949 10.8373C6.79643 10.8051 6.39119 10.349 6.4233 9.806C6.45541 9.26298 6.91158 8.85778 7.45465 8.8899Z" fill="black"/>
</svg>
