<svg width="14" height="14" viewBox="0 0 14 14" fill="none" xmlns="http://www.w3.org/2000/svg">
<g clip-path="url(#clip0)">
<path d="M13.9075 3.91173L10.0891 0.0932736C9.96378 -0.0290363 9.7639 -0.0290363 9.63861 0.0932736L6.99851 2.73338L6.90603 2.6409C6.78074 2.51561 6.58087 2.51561 6.45557 2.6409L0.993394 8.10308C0.352014 8.74446 0 9.59466 0 10.5015C0 12.4317 1.56915 14.0008 3.49925 14.0008C4.39122 14.0008 5.26529 13.6398 5.89772 13.0074L11.3629 7.54224C11.4882 7.41695 11.4882 7.21708 11.3629 7.09179L11.2704 6.99931L13.9105 4.3592C14.0328 4.23689 14.0328 4.03702 13.9075 3.91173ZM5.44726 12.5599C4.93416 13.073 4.22416 13.3654 3.49925 13.3654C1.92116 13.3654 0.635414 12.0796 0.635414 10.5015C0.635414 9.76471 0.921798 9.07261 1.44087 8.55354L6.68229 3.3151L10.6887 7.32149L5.44726 12.5599ZM10.8199 6.55183L7.45195 3.18384L9.86533 0.770453L13.2333 4.13845L10.8199 6.55183Z" fill="black"/>
<path d="M8.68101 2.96228C8.56169 3.08758 8.56169 3.28446 8.684 3.40677L9.0032 3.72597C9.06584 3.78862 9.14639 3.81845 9.22693 3.81845C9.30748 3.81845 9.39101 3.78862 9.45067 3.72597L10.4053 2.77136C10.5306 2.64607 10.5306 2.44619 10.4053 2.3209L10.0861 2.0017C10.0563 1.97187 10.0175 1.94502 9.97869 1.93011C9.75794 1.84061 9.75794 1.83763 8.68101 2.96228Z" fill="black"/>
<path d="M10.277 4.99979L10.5962 5.31899C10.6589 5.38164 10.7394 5.41147 10.8199 5.41147C10.9005 5.41147 10.984 5.38164 11.0437 5.31899L11.9983 4.36438C12.1236 4.23909 12.1236 4.03921 11.9983 3.91392L11.6791 3.59472C11.6493 3.56489 11.6105 3.53804 11.5717 3.52313C11.348 3.43363 11.348 3.43065 10.271 4.55232C10.1517 4.67761 10.1547 4.87748 10.277 4.99979Z" fill="black"/>
<path d="M6.4347 6.74195C6.40785 6.84934 6.44067 6.9627 6.51823 7.04027L4.63287 8.92563L4.46879 8.43639C4.43001 8.32303 4.45985 8.19773 4.54636 8.11122L4.78799 7.86959C4.83871 7.88152 4.88942 7.89942 4.94312 7.89942C5.10719 7.89942 5.26828 7.83677 5.39358 7.71446C5.64118 7.46686 5.64118 7.06115 5.39358 6.81355C5.14597 6.56594 4.74325 6.56594 4.49266 6.81355C4.32859 6.97762 4.28384 7.20732 4.33754 7.41913L4.0959 7.66076C3.83935 7.91732 3.74985 8.2932 3.86321 8.63924L4.12573 9.42978L3.97061 9.5849C3.7588 9.53121 3.5291 9.57596 3.36502 9.74003C3.11742 9.98763 3.11742 10.3933 3.36502 10.6409C3.49032 10.7662 3.65141 10.8259 3.81548 10.8259C3.97956 10.8259 4.14065 10.7633 4.26594 10.6409C4.43001 10.4769 4.47476 10.2472 4.42106 10.0354L5.02665 9.42978L5.81719 9.6923C5.91861 9.72511 6.02004 9.74301 6.12147 9.74301C6.36907 9.74301 6.61071 9.64457 6.79268 9.4626L6.96571 9.28957C7.02835 9.35222 7.1089 9.38205 7.18944 9.38205C7.26999 9.38205 7.35352 9.35222 7.41318 9.28957L7.86364 8.83911C7.98893 8.71382 7.98893 8.51395 7.86364 8.38866L7.41318 7.9382C7.28789 7.81291 7.08801 7.81291 6.96272 7.9382L6.51226 8.38866C6.4526 8.44832 6.41979 8.52886 6.41979 8.61538C6.41979 8.70189 6.4526 8.78243 6.51226 8.8421L6.33924 9.01512C6.25273 9.10163 6.12744 9.12848 6.01408 9.09268L5.52484 8.92861L6.95974 7.49371C7.0194 7.55337 7.10293 7.58619 7.18348 7.58619C7.20734 7.58619 7.23121 7.5832 7.25806 7.57724C7.36545 7.55039 7.45196 7.47283 7.48776 7.36841L7.7115 6.69422C7.75028 6.58086 7.72045 6.45258 7.63393 6.36905C7.55041 6.28553 7.42213 6.25569 7.30877 6.29149L6.63457 6.51523C6.53911 6.54804 6.45857 6.63456 6.4347 6.74195ZM4.94312 7.26699L5.16686 7.49371L4.94312 7.26699ZM3.81846 10.1905L4.0422 10.4142L3.81846 10.1905Z" fill="black"/>
</g>
<defs>
<clipPath id="clip0">
<rect width="14" height="14" fill="white"/>
</clipPath>
</defs>
</svg>
